<svg xmlns="http://www.w3.org/2000/svg" xmlns:xlink="http://www.w3.org/1999/xlink" x="0" y="0" width="661.1428833007812" height="333.14288330078125" style="
        width:661.1428833007812px;
        height:333.14288330078125px;
        background: transparent;
        fill: none;
">
        
        
        <svg xmlns="http://www.w3.org/2000/svg" class="role-diagram-draw-area"><g class="shapes-region" style="stroke: black; fill: none;"><g class="composite-shape"><path class="real" d=" M288.6,27 L288.6,95 C288.6,99.97 275.17,104 258.6,104 C242.03,104 228.6,99.97 228.6,95 L228.6,27 C228.6,22.03 242.03,18 258.6,18 C275.17,18 288.6,22.03 288.6,27 C288.6,31.97 275.17,36 258.6,36 C242.03,36 228.6,31.97 228.6,27" style="stroke-width: 1; stroke: rgb(0, 0, 0); fill: none; fill-opacity: 1;"/></g><g class="composite-shape"><path class="real" d=" M414.4,120 L414.4,188 C414.4,192.97 400.97,197 384.4,197 C367.83,197 354.4,192.97 354.4,188 L354.4,120 C354.4,115.03 367.83,111 384.4,111 C400.97,111 414.4,115.03 414.4,120 C414.4,124.97 400.97,129 384.4,129 C367.83,129 354.4,124.97 354.4,120" style="stroke-width: 1; stroke: rgb(0, 0, 0); fill: none; fill-opacity: 1;"/></g><g class="grouped-shape"><g class="composite-shape"><path class="real" d=" M314.91,130.63 L314.91,122.87 C314.91,118.58 320.15,115.1 326.61,115.1 C333.08,115.1 338.31,118.58 338.31,122.87 L338.31,130.63 Z" style="stroke-width: 1; stroke: rgb(0, 0, 0); fill: none; fill-opacity: 1;"/></g><g class="grouped-shape"><g class="composite-shape"><path class="real" d=" M326.26,140.96 L309.6,147.83 L309.6,134.1 Z" style="stroke-width: 1; stroke: rgb(0, 0, 0); fill: none; fill-opacity: 1;"/></g><g class="composite-shape"><path class="real" d=" M326.26,140.96 L342.91,134.1 L342.91,147.83 Z" style="stroke-width: 1; stroke: rgb(0, 0, 0); fill: none; fill-opacity: 1;"/></g></g><g class="arrow-line"><path class="connection real" stroke-dasharray="" d="  M326.33,130.8 L326.26,140.96" style="stroke: rgb(0, 0, 0); stroke-width: 1; fill: none; fill-opacity: 1;"/></g></g><g class="composite-shape"><path class="real" d=" M201.28,263.93 L176.86,263.93 C173.23,263.93 170.29,260.14 170.29,255.46 C170.29,250.79 173.23,247 176.86,247 L201.28,247 M207.86,255.46 C207.86,260.14 204.91,263.93 201.28,263.93 C197.65,263.93 194.71,260.14 194.71,255.46 C194.71,250.79 197.65,247 201.28,247 C204.91,247 207.86,250.79 207.86,255.46" style="stroke-width: 1; stroke: rgb(126, 211, 33); stroke-opacity: 1; fill: rgb(0, 0, 0); fill-opacity: 1;"/></g><g class="composite-shape"><path class="real" d=" M160.1,263.76 C160.1,254.5 167.6,247 176.86,247 C186.12,247 193.62,254.5 193.62,263.76 C193.62,273.02 186.12,280.52 176.86,280.52 C167.6,280.52 160.1,273.02 160.1,263.76 Z" style="stroke-width: 1; stroke: rgb(126, 211, 33); stroke-opacity: 1; fill: rgb(0, 0, 0); fill-opacity: 1;"/></g><g class="arrow-line"><path class="connection real" stroke-dasharray="" d="  M201.28,252 L213.71,252" style="stroke: rgb(0, 0, 0); stroke-width: 1; fill: none; fill-opacity: 1;"/></g><g class="arrow-line"><path class="connection real" stroke-dasharray="" d="  M201.28,256.93 L218.11,257.06" style="stroke: rgb(0, 0, 0); stroke-width: 1; fill: none; fill-opacity: 1;"/></g><g class="arrow-line"><path class="connection real" stroke-dasharray="" d="  M213.7,47.77 L213.71,252" style="stroke: rgb(0, 0, 0); stroke-width: 1; fill: none; fill-opacity: 1;"/></g><g class="arrow-line"><path class="connection real" stroke-dasharray="" d="  M217.31,51.77 L218.11,257.06" style="stroke: rgb(0, 0, 0); stroke-width: 1; fill: none; fill-opacity: 1;"/></g><g class="arrow-line"><path class="connection real" stroke-dasharray="" d="  M213.7,47.77 L228.6,47.8" style="stroke: rgb(0, 0, 0); stroke-width: 1; fill: none; fill-opacity: 1;"/></g><g class="arrow-line"><path class="connection real" stroke-dasharray="" d="  M217.31,51.77 L228.6,51.8" style="stroke: rgb(0, 0, 0); stroke-width: 1; fill: none; fill-opacity: 1;"/></g><g class="arrow-line"><path class="connection real" stroke-dasharray="" d="  M288.91,84.97 L294.91,84.97" style="stroke: rgb(0, 0, 0); stroke-width: 1; fill: none; fill-opacity: 1;"/></g><g class="arrow-line"><path class="connection real" stroke-dasharray="" d="  M288.51,81.77 L299.31,81.8" style="stroke: rgb(0, 0, 0); stroke-width: 1; fill: none; fill-opacity: 1;"/></g><g class="arrow-line"><path class="connection real" stroke-dasharray="" d="  M294.91,84.97 L294.9,143.23" style="stroke: rgb(0, 0, 0); stroke-width: 1; fill: none; fill-opacity: 1;"/></g><g class="arrow-line"><path class="connection real" stroke-dasharray="" d="  M299.31,81.8 L299.3,138.06" style="stroke: rgb(0, 0, 0); stroke-width: 1; fill: none; fill-opacity: 1;"/></g><g class="arrow-line"><path class="connection real" stroke-dasharray="" d="  M294.9,143.23 L309.31,143.2" style="stroke: rgb(0, 0, 0); stroke-width: 1; fill: none; fill-opacity: 1;"/></g><g class="arrow-line"><path class="connection real" stroke-dasharray="" d="  M299.3,138.06 L309.59,138.09" style="stroke: rgb(0, 0, 0); stroke-width: 1; fill: none; fill-opacity: 1;"/></g><g class="arrow-line"><path class="connection real" stroke-dasharray="" d="  M343.59,138.09 L353.87,138.11" style="stroke: rgb(0, 0, 0); stroke-width: 1; fill: none; fill-opacity: 1;"/></g><g class="arrow-line"><path class="connection real" stroke-dasharray="" d="  M343.14,142.63 L354.34,142.6" style="stroke: rgb(0, 0, 0); stroke-width: 1; fill: none; fill-opacity: 1;"/></g><g class="arrow-line"><path class="connection real" stroke-dasharray="" d="  M463.57,190.11 L463.57,242.11" style="stroke: rgb(0, 0, 0); stroke-width: 1; fill: none; fill-opacity: 1;"/></g><g class="arrow-line"><path class="connection real" stroke-dasharray="" d="  M468.7,184.63 L468.69,240.89" style="stroke: rgb(0, 0, 0); stroke-width: 1; fill: none; fill-opacity: 1;"/></g><g class="grouped-shape"><g class="composite-shape"><path class="real" d=" M158.46,222.23 L488.46,222.23 L488.46,289.71 L158.46,289.71 Z" style="stroke-width: 1; stroke: rgb(0, 0, 0); fill: none; fill-opacity: 1;"/></g><g class="composite-shape"><path class="real" d=" M158.46,239.75 L488.46,239.75 L488.46,289.71 L158.46,289.71 Z" style="stroke-width: 1; stroke: rgb(0, 0, 0); fill: rgb(74, 144, 226); fill-opacity: 0.29;"/></g></g><g class="arrow-line"><path class="connection real" stroke-dasharray="" d="  M414.4,188 L425.6,187.97" style="stroke: rgb(0, 0, 0); stroke-width: 1; fill: none; fill-opacity: 1;"/></g><g class="arrow-line"><path class="connection real" stroke-dasharray="" d="  M414.4,184 L425.6,183.97" style="stroke: rgb(0, 0, 0); stroke-width: 1; fill: none; fill-opacity: 1;"/></g><g class="arrow-line"><path class="connection real" stroke-dasharray="" d="  M458.41,184.6 L468.7,184.63" style="stroke: rgb(0, 0, 0); stroke-width: 1; fill: none; fill-opacity: 1;"/></g><g class="grouped-shape"><g class="composite-shape"><path class="real" d=" M430.41,176.13 L430.41,168.37 C430.41,164.08 435.65,160.6 442.11,160.6 C448.58,160.6 453.81,164.08 453.81,168.37 L453.81,176.13 Z" style="stroke-width: 1; stroke: rgb(0, 0, 0); fill: none; fill-opacity: 1;"/></g><g class="grouped-shape"><g class="composite-shape"><path class="real" d=" M441.76,186.46 L425.1,193.33 L425.1,179.6 Z" style="stroke-width: 1; stroke: rgb(0, 0, 0); fill: none; fill-opacity: 1;"/></g><g class="composite-shape"><path class="real" d=" M441.76,186.46 L458.41,179.6 L458.41,193.33 Z" style="stroke-width: 1; stroke: rgb(0, 0, 0); fill: none; fill-opacity: 1;"/></g></g><g class="arrow-line"><path class="connection real" stroke-dasharray="" d="  M441.83,176.3 L441.76,186.46" style="stroke: rgb(0, 0, 0); stroke-width: 1; fill: none; fill-opacity: 1;"/></g></g><g class="arrow-line"><path class="connection real" stroke-dasharray="" d="  M457.9,190 L463.57,190.11" style="stroke: rgb(0, 0, 0); stroke-width: 1; fill: none; fill-opacity: 1;"/></g><g/></g><g/><g/><g/></svg>
        <svg xmlns="http://www.w3.org/2000/svg" xmlns:xlink="http://www.w3.org/1999/xlink" width="660" height="332" style="width:660px;height:332px;font-family:Asana-Math, Asana;background:transparent;"><g><g><g><text x="227.0714111328125" y="105.28572082519531" style="white-space:pre;stroke:none;fill:rgb(0,0,0);fill-opacity:1;font-size:12px;font-family:&quot;Courier New&quot;, Courier, monospace;font-weight:700;font-style:normal;dominant-baseline:text-before-edge;text-decoration:none solid rgb(0, 0, 0);">Tanque 01</text></g></g></g><g><g><g><text x="354.5714111328125" y="199.7857208251953" style="white-space:pre;stroke:none;fill:rgb(0,0,0);fill-opacity:1;font-size:12px;font-family:&quot;Courier New&quot;, Courier, monospace;font-weight:700;font-style:normal;dominant-baseline:text-before-edge;text-decoration:none solid rgb(0, 0, 0);">Tanque 02</text></g></g></g><g><g><g><text x="303.5714111328125" y="87.28572082519531" style="white-space:pre;stroke:none;fill:rgb(0,0,0);fill-opacity:1;font-size:12px;font-family:&quot;Courier New&quot;, Courier, monospace;font-weight:700;font-style:normal;dominant-baseline:text-before-edge;text-decoration:none solid rgb(0, 0, 0);">Válvula</text></g></g><g><g><text x="321.5714111328125" y="101.50892639160156" style="white-space:pre;stroke:none;fill:rgb(0,0,0);fill-opacity:1;font-size:12px;font-family:&quot;Courier New&quot;, Courier, monospace;font-weight:700;font-style:normal;dominant-baseline:text-before-edge;text-decoration:none solid rgb(0, 0, 0);">01</text></g></g></g><g><g><g><text x="428.57147216796875" y="132.7857208251953" style="white-space:pre;stroke:none;fill:rgb(0,0,0);fill-opacity:1;font-size:12px;font-family:&quot;Courier New&quot;, Courier, monospace;font-weight:700;font-style:normal;dominant-baseline:text-before-edge;text-decoration:none solid rgb(0, 0, 0);">Válvula</text></g></g><g><g><text x="446.57147216796875" y="147.00892639160156" style="white-space:pre;stroke:none;fill:rgb(0,0,0);fill-opacity:1;font-size:12px;font-family:&quot;Courier New&quot;, Courier, monospace;font-weight:700;font-style:normal;dominant-baseline:text-before-edge;text-decoration:none solid rgb(0, 0, 0);">02</text></g></g></g></svg>
</svg>
